# xmcd
#
# Track frame offsets: 
#        150
#        18767
#        34667
#        45917
#        61442
#        75167
#        89192
#        108167
#        120317
#        138017
#        152192
#        166142
#        178067
#        196517
#        214967
#
# Disc length: 3060 seconds
#
# Revision: 0
# Processed by: cddbd v1.5.2PL0 Copyright (c) Steve Scherf et al.
# Submitted via: ExactAudioCopyFreeDBPlugin 1.0
#
DISCID=b00bf20f
DTITLE=Rainer Weisbecker - Ranzereiße
DYEAR=2018
DGENRE=Blues
TTITLE0=Mei Gidarr, de Blues, de Tequila un ich
TTITLE1=Ferz mit Kricke
TTITLE2=Die Buberolzern aus de Unnergass
TTITLE3=Mit Ampere, Volt un Watt
TTITLE4=Ranzereiße (E Liebesliedche)
TTITLE5=Dorch dick un dünn
TTITLE6=Die Moritat vom heilische Schwarzbrenner
TTITLE7=Drei Klicker un en Knopp
TTITLE8=Settche aus de Breitegass
TTITLE9=En scheene Offebach-Blues
TTITLE10=De Suff un de Spass
TTITLE11=In dem klaane Haus da unne
TTITLE12=Hey, Lawdy Mama
TTITLE13=En Traum in Schwarz un Blau
TTITLE14=Scholzegret Blues
EXTD=
EXTT0=
EXTT1=
EXTT2=
EXTT3=
EXTT4=
EXTT5=
EXTT6=
EXTT7=
EXTT8=
EXTT9=
EXTT10=
EXTT11=
EXTT12=
EXTT13=
EXTT14=
PLAYORDER=
